<svg width="97" height="24" viewBox="0 0 97 24" fill="none" xmlns="http://www.w3.org/2000/svg">
<path opacity="0.8" d="M21.9846 16.2062V21.1646C20.1821 22.7497 15.875 23.6926 12.6683 23.6926C9.46571 23.6926 0.601074 21.7092 0.601074 12.3898C0.601074 3.07027 9.03869 1.06249 12.4425 1.06249C15.8504 1.06249 19.48 1.68027 21.5822 3.07027V7.43128C21.5822 7.9759 20.8308 7.92713 20.8308 7.43128C20.7816 6.68751 18.7779 2.22895 13.7687 2.3265C8.36122 2.43623 4.70697 6.64281 4.70697 12.1906C4.70697 17.7384 8.25857 22.5018 13.6209 22.3514C15.3618 22.3026 17.1766 21.758 18.0552 21.0346L18.0758 16.2062C18.0758 14.8202 17.2259 14.3244 16.3759 14.3244C15.8216 14.3244 15.8216 13.5318 16.3759 13.5318H23.6844C24.2346 13.5318 24.2346 14.3731 23.6844 14.3244C22.8386 14.3244 21.9846 14.8202 21.9846 16.2062ZM71.2595 7.43535C71.2595 7.97997 70.7093 7.9312 70.7093 7.43535C70.6559 6.69158 68.6563 2.08264 63.6471 2.18424C58.2397 2.28992 54.5813 6.64687 54.5813 12.1947C54.5813 17.7425 58.0877 22.6522 63.4459 22.5059C68.8041 22.3555 71.358 17.1044 71.5592 16.4094C71.7604 15.7144 72.1094 15.816 72.1094 16.3606V20.4249C69.9086 22.01 65.7494 23.6967 62.5468 23.6967C59.3442 23.6967 50.4795 21.7133 50.4795 12.3938C50.4795 3.07027 58.8925 0.843018 62.2963 0.843018C65.7042 0.843018 69.1572 1.68433 71.2636 3.07027V7.43535H71.2595ZM48.5744 1.38764C49.375 1.38764 49.375 2.13141 48.5744 2.13141C47.7245 2.13141 46.8745 2.62726 46.8745 4.01319L46.776 14.8446C46.776 20.0307 42.5264 23.843 37.2832 23.843C32.0399 23.843 27.9464 20.0307 27.9464 14.8446V4.01319C27.9464 2.62319 27.0923 2.13141 26.2424 2.13141C25.4418 2.13141 25.4418 1.38764 26.2424 1.38764H33.6536C34.4542 1.38764 34.4542 2.13141 33.6536 2.13141C32.7995 2.13141 31.9496 2.62726 31.9496 4.01319L31.9414 16.1086C31.9414 19.7665 34.9633 22.7335 38.6586 22.7335C42.354 22.7335 45.3513 19.0227 45.3513 15.3689L45.1706 4.01319C45.1706 2.62319 44.3207 2.13141 43.4666 2.13141C42.6701 2.13141 42.6701 1.38764 43.4666 1.38764H48.5744ZM95.747 7.43535C95.747 7.97997 95.1968 7.9312 95.1968 7.43535C95.1476 6.69158 93.1439 2.08264 88.1347 2.18424C82.7272 2.28992 79.0689 6.64687 79.0689 12.1947C79.0689 17.7425 82.5753 22.6522 87.9335 22.5059C93.2917 22.3595 95.8456 17.1044 96.0468 16.4094C96.248 15.7144 96.6011 15.816 96.6011 16.3606V20.4249C94.3962 22.01 90.241 23.6967 87.0343 23.6967C83.8317 23.6967 74.9671 21.7133 74.9671 12.3938C74.9671 3.07027 83.3801 0.843018 86.788 0.843018C90.1918 0.843018 93.6489 1.68433 95.7512 3.07027V7.43535H95.747Z" fill="#718087"/>
</svg>
